# xmcd
#
# Track frame offsets:
#	150
#	18640
#	37888
#	50425
#	67330
#	84598
#	105268
#	122380
#	148428
#	165533
#	179178
#	206848
#
# Disc length: 2956 seconds
# Revision: 3
# Processed by: cddbd v1.5.2PL0 Copyright (c) Steve Scherf et al.
# Submitted via: dBpowerAMP V12.0
#
DISCID=af0b8a0c
DTITLE=Michael Osborn - Case for the Blues
DYEAR=1993
DGENRE=Blues
TTITLE0=T.S. Boogie
TTITLE1=Lovesick
TTITLE2=That's Right
TTITLE3=Miniskirts and Make-Up
TTITLE4=Bottleneck Blues
TTITLE5=Spellbound
TTITLE6=The Home of the Homeless
TTITLE7=Crazy Life
TTITLE8=High Heels
TTITLE9=Foolin' With a Fool
TTITLE10=Nightmare Blues
TTITLE11=A Woman Never Forgets
EXTD=
EXTT0=
EXTT1=
EXTT2=
EXTT3=
EXTT4=
EXTT5=
EXTT6=
EXTT7=
EXTT8=
EXTT9=
EXTT10=
EXTT11=
PLAYORDER=
